REM DIRINDEX 1\2\5,1\2\6,1\2\7,1\2\8,1\3\9,1\3\10,1\3\11,1\4\12,1\4\13,1\4\14,1\4\15,1\4\16
REM DIRNAME folder01,folder02,folder03,folder04,folder05,folder06,folder07,folder08,folder09,folder10,folder11,folder12,folder13,folder14,folder15,folder16
TITLE ""
FILE "1200_sec03_1121_1131.mp3" MP3
  TRACK 01 AUDIO
    TITLE "0:"
    INDEX 01 00:00:00
  TRACK 02 AUDIO
    TITLE "16:cjc034_08175"
    INDEX 01 00:03:17
  TRACK 03 AUDIO
    TITLE "0:"
    INDEX 01 00:04:46
  TRACK 04 AUDIO
    TITLE "16:cjc034_08176"
    INDEX 01 00:05:18
  TRACK 05 AUDIO
    TITLE "0:"
    INDEX 01 00:07:60
  TRACK 06 AUDIO
    TITLE "12:cjc034_08177"
    INDEX 01 00:08:62
  TRACK 07 AUDIO
    TITLE "0:"
    INDEX 01 00:10:21
  TRACK 08 AUDIO
    TITLE "13:cjc034_08178"
    INDEX 01 00:10:55
  TRACK 09 AUDIO
    TITLE "0:"
    INDEX 01 00:13:20
  TRACK 10 AUDIO
    TITLE "14:cjc034_08179"
    INDEX 01 00:13:51
  TRACK 11 AUDIO
    TITLE "0:"
    INDEX 01 00:15:13
  TRACK 12 AUDIO
    TITLE "15:cjc034_08180"
    INDEX 01 00:15:46
  TRACK 13 AUDIO
    TITLE "0:"
    INDEX 01 00:19:67
  TRACK 14 AUDIO
    TITLE "12:cjc034_08181"
    INDEX 01 00:21:25
  TRACK 15 AUDIO
    TITLE "0:"
    INDEX 01 00:22:68
  TRACK 16 AUDIO
    TITLE "13:cjc034_08182"
    INDEX 01 00:23:24
  TRACK 17 AUDIO
    TITLE "0:"
    INDEX 01 00:27:10
  TRACK 18 AUDIO
    TITLE "14:cjc034_08183"
    INDEX 01 00:27:43
  TRACK 19 AUDIO
    TITLE "0:"
    INDEX 01 00:29:09
  TRACK 20 AUDIO
    TITLE "15:cjc034_08184"
    INDEX 01 00:29:40
  TRACK 21 AUDIO
    TITLE "0:"
    INDEX 01 00:35:27
  TRACK 22 AUDIO
    TITLE "12:cjc034_08185"
    INDEX 01 00:36:62
  TRACK 23 AUDIO
    TITLE "0:"
    INDEX 01 00:40:11
  TRACK 24 AUDIO
    TITLE "13:cjc034_08186"
    INDEX 01 00:40:44
  TRACK 25 AUDIO
    TITLE "0:"
    INDEX 01 00:46:19
  TRACK 26 AUDIO
    TITLE "14:cjc034_08187"
    INDEX 01 00:46:53
  TRACK 27 AUDIO
    TITLE "0:"
    INDEX 01 00:50:01
  TRACK 28 AUDIO
    TITLE "15:cjc034_08188"
    INDEX 01 00:50:37
  TRACK 29 AUDIO
    TITLE "0:"
    INDEX 01 00:54:23
  TRACK 30 AUDIO
    TITLE "12:cjc034_08189"
    INDEX 01 00:55:55
  TRACK 31 AUDIO
    TITLE "0:"
    INDEX 01 00:57:01
  TRACK 32 AUDIO
    TITLE "13:cjc034_08190"
    INDEX 01 00:57:33
  TRACK 33 AUDIO
    TITLE "0:"
    INDEX 01 01:01:40
  TRACK 34 AUDIO
    TITLE "14:cjc034_08191"
    INDEX 01 01:01:74
  TRACK 35 AUDIO
    TITLE "0:"
    INDEX 01 01:03:18
  TRACK 36 AUDIO
    TITLE "15:cjc034_08192"
    INDEX 01 01:03:49
  TRACK 37 AUDIO
    TITLE "0:"
    INDEX 01 01:07:23
  TRACK 38 AUDIO
    TITLE "12:cjc034_08193"
    INDEX 01 01:08:56
  TRACK 39 AUDIO
    TITLE "0:"
    INDEX 01 01:11:60
  TRACK 40 AUDIO
    TITLE "13:cjc034_08194"
    INDEX 01 01:12:19
  TRACK 41 AUDIO
    TITLE "0:"
    INDEX 01 01:14:19
  TRACK 42 AUDIO
    TITLE "14:cjc034_08195"
    INDEX 01 01:14:53
  TRACK 43 AUDIO
    TITLE "0:"
    INDEX 01 01:17:57
  TRACK 44 AUDIO
    TITLE "15:cjc034_08196"
    INDEX 01 01:18:15
  TRACK 45 AUDIO
    TITLE "0:"
    INDEX 01 01:22:52
  TRACK 46 AUDIO
    TITLE "12:cjc034_08197"
    INDEX 01 01:24:10
  TRACK 47 AUDIO
    TITLE "0:"
    INDEX 01 01:25:37
  TRACK 48 AUDIO
    TITLE "13:cjc034_08198"
    INDEX 01 01:25:68
  TRACK 49 AUDIO
    TITLE "0:"
    INDEX 01 01:27:18
  TRACK 50 AUDIO
    TITLE "14:cjc034_08199"
    INDEX 01 01:27:53
  TRACK 51 AUDIO
    TITLE "0:"
    INDEX 01 01:29:03
  TRACK 52 AUDIO
    TITLE "15:cjc034_08200"
    INDEX 01 01:29:37
  TRACK 53 AUDIO
    TITLE "0:"
    INDEX 01 01:33:60
  TRACK 54 AUDIO
    TITLE "12:cjc034_08201"
    INDEX 01 01:35:18
  TRACK 55 AUDIO
    TITLE "0:"
    INDEX 01 01:38:04
  TRACK 56 AUDIO
    TITLE "13:cjc034_08202"
    INDEX 01 01:38:38
  TRACK 57 AUDIO
    TITLE "0:"
    INDEX 01 01:41:56
  TRACK 58 AUDIO
    TITLE "14:cjc034_08203"
    INDEX 01 01:42:14
  TRACK 59 AUDIO
    TITLE "0:"
    INDEX 01 01:45:00
  TRACK 60 AUDIO
    TITLE "15:cjc034_08204"
    INDEX 01 01:45:34
  TRACK 61 AUDIO
    TITLE "0:"
    INDEX 01 01:48:58
  TRACK 62 AUDIO
    TITLE "12:cjc034_08205"
    INDEX 01 01:50:17
  TRACK 63 AUDIO
    TITLE "0:"
    INDEX 01 01:51:52
  TRACK 64 AUDIO
    TITLE "13:cjc034_08206"
    INDEX 01 01:52:08
  TRACK 65 AUDIO
    TITLE "0:"
    INDEX 01 01:53:51
  TRACK 66 AUDIO
    TITLE "14:cjc034_08207"
    INDEX 01 01:54:07
  TRACK 67 AUDIO
    TITLE "0:"
    INDEX 01 01:55:42
  TRACK 68 AUDIO
    TITLE "15:cjc034_08208"
    INDEX 01 01:56:00
  TRACK 69 AUDIO
    TITLE "0:"
    INDEX 01 01:59:42
  TRACK 70 AUDIO
    TITLE "12:cjc034_08209"
    INDEX 01 02:00:72
  TRACK 71 AUDIO
    TITLE "0:"
    INDEX 01 02:03:61
  TRACK 72 AUDIO
    TITLE "13:cjc034_08210"
    INDEX 01 02:04:19
  TRACK 73 AUDIO
    TITLE "0:"
    INDEX 01 02:07:22
  TRACK 74 AUDIO
    TITLE "14:cjc034_08211"
    INDEX 01 02:07:53
  TRACK 75 AUDIO
    TITLE "0:"
    INDEX 01 02:10:42
  TRACK 76 AUDIO
    TITLE "15:cjc034_08212"
    INDEX 01 02:10:73
  TRACK 77 AUDIO
    TITLE "0:"
    INDEX 01 02:14:22
  TRACK 78 AUDIO
    TITLE "12:cjc034_08213"
    INDEX 01 02:15:54
  TRACK 79 AUDIO
    TITLE "0:"
    INDEX 01 02:21:71
  TRACK 80 AUDIO
    TITLE "13:cjc034_08214"
    INDEX 01 02:22:29
  TRACK 81 AUDIO
    TITLE "0:"
    INDEX 01 02:24:06
  TRACK 82 AUDIO
    TITLE "14:cjc034_08215"
    INDEX 01 02:24:38
  TRACK 83 AUDIO
    TITLE "0:"
    INDEX 01 02:30:54
  TRACK 84 AUDIO
    TITLE "15:cjc034_08216"
    INDEX 01 02:31:12
  TRACK 85 AUDIO
    TITLE "0:"
    INDEX 01 02:35:22
  TRACK 86 AUDIO
    TITLE "12:cjc034_08217"
    INDEX 01 02:36:55
  TRACK 87 AUDIO
    TITLE "0:"
    INDEX 01 02:38:03
  TRACK 88 AUDIO
    TITLE "13:cjc034_08218"
    INDEX 01 02:38:36
  TRACK 89 AUDIO
    TITLE "0:"
    INDEX 01 02:41:34
  TRACK 90 AUDIO
    TITLE "14:cjc034_08219"
    INDEX 01 02:41:66
  TRACK 91 AUDIO
    TITLE "0:"
    INDEX 01 02:43:14
  TRACK 92 AUDIO
    TITLE "15:cjc034_08220"
    INDEX 01 02:43:45
  TRACK 93 AUDIO
    TITLE "0:"
    INDEX 01 02:47:39
